<?xml version="1.0" encoding="utf-8"?>
<!-- Generator: Adobe Illustrator 27.9.0, SVG Export Plug-In . SVG Version: 6.00 Build 0)  -->
<svg version="1.1" xmlns="http://www.w3.org/2000/svg" xmlns:xlink="http://www.w3.org/1999/xlink" x="0px" y="0px"
	 viewBox="0 0 410.83945 145.08511" style="enable-background:new 0 0 410.83945 145.08511;" xml:space="preserve">
<g id="Ebene_1">
	<g>
		<path d="M185.81223,60.29888c0-2.19141,1.0957-3.28711,3.28711-3.28711h19.72266c2.19141,0,3.28711,1.0957,3.28711,3.28711
			v6.57422c0,2.19141-1.0957,3.28711-3.28711,3.28711s-3.28711-1.0957-3.28711-3.28711v-3.28711h-13.14844v36.15771
			c0,2.19141-1.0957,3.28711-3.28711,3.28711s-3.28711-1.0957-3.28711-3.28711V60.29888z"/>
		<path d="M238.40598,103.03082c-3.68555,0-6.79883-1.26953-9.33887-3.80957s-3.80957-5.65332-3.80957-9.33887
			c0-2.39062,0.58008-4.59766,1.74316-6.62354c2.49023-4.34912,6.29102-6.52441,11.40527-6.52441h13.14844v-6.57422
			c0-1.85889-0.63184-3.41943-1.89258-4.68164c-1.2627-1.26123-2.82324-1.89258-4.68164-1.89258h-13.14844
			c-2.19141,0-3.28711-1.0957-3.28711-3.28711s1.0957-3.28711,3.28711-3.28711h13.14844c3.68555,0,6.79785,1.27002,9.33789,3.81006
			s3.81055,5.65283,3.81055,9.33838v29.5835c0,2.19141-1.0957,3.28711-3.28711,3.28711H238.40598z M251.55441,83.30865h-13.14844
			c-1.82715,0-3.37891,0.63965-4.65723,1.91748c-1.27832,1.27832-1.91699,2.83105-1.91699,4.65625
			c0,1.79297,0.64746,3.33691,1.94238,4.63184s2.83887,1.94238,4.63184,1.94238h13.14844V83.30865z"/>
		<path d="M277.85129,70.16021v19.72217c0,1.79297,0.64746,3.33691,1.94238,4.63184s2.83887,1.94238,4.63184,1.94238h9.86133
			c2.19141,0,3.28711,1.0957,3.28711,3.28711s-1.0957,3.28711-3.28711,3.28711h-9.86133c-3.68555,0-6.79883-1.26953-9.33887-3.80957
			s-3.80957-5.65332-3.80957-9.33887V70.16021c0-3.68555,1.26953-6.79834,3.80957-9.33838s5.65332-3.81006,9.33887-3.81006h9.86133
			c2.19141,0,3.28711,1.0957,3.28711,3.28711s-1.0957,3.28711-3.28711,3.28711h-9.86133c-1.82715,0-3.37891,0.63965-4.65723,1.91748
			C278.48996,66.78228,277.85129,68.33453,277.85129,70.16021z"/>
		<path d="M311.80478,99.74371V40.57623c0-2.19141,1.0957-3.28711,3.28711-3.28711h26.29688
			c2.19141,0,3.28711,1.0957,3.28711,3.28711s-1.0957,3.28711-3.28711,3.28711h-23.0098v19.72266h16.43558
			c2.19141,0,3.28711,1.0957,3.28711,3.28711s-1.0957,3.28711-3.28711,3.28711h-16.43558V96.4566h23.0098
			c2.19141,0,3.28711,1.0957,3.28711,3.28711s-1.0957,3.28711-3.28711,3.28711h-26.29688
			C312.90048,103.03082,311.80478,101.93511,311.80478,99.74371z"/>
		<path d="M358.37244,42.419c-0.36621-0.56396-0.54785-1.17822-0.54785-1.84277c0-2.19141,1.0957-3.28711,3.28711-3.28711
			c1.19531,0,2.1084,0.48193,2.73926,1.44434l39.44531,59.16748c0.36523,0.56543,0.54785,1.17969,0.54785,1.84277
			c0,2.19141-1.0957,3.28711-3.28711,3.28711c-1.19531,0-2.10938-0.48047-2.73926-1.44434L358.37244,42.419z"/>
	</g>
	
		<rect x="2.5" y="2.5" style="fill:#FFFFFF;stroke:#000000;stroke-width:5;stroke-linecap:round;stroke-linejoin:round;stroke-miterlimit:10;" width="101.10638" height="140.08511"/>
	
		<line style="fill:none;stroke:#000000;stroke-width:3;stroke-linecap:round;stroke-linejoin:round;stroke-miterlimit:10;" x1="15.43617" y1="23.43617" x2="90.67021" y2="23.43617"/>
	
		<line style="fill:none;stroke:#000000;stroke-width:3;stroke-linecap:round;stroke-linejoin:round;stroke-miterlimit:10;" x1="37.90425" y1="42.67021" x2="90.67021" y2="42.67021"/>
	
		<line style="fill:none;stroke:#000000;stroke-width:3;stroke-linecap:round;stroke-linejoin:round;stroke-miterlimit:10;" x1="37.90425" y1="61.90425" x2="90.67021" y2="61.90425"/>
	
		<line style="fill:none;stroke:#000000;stroke-width:3;stroke-linecap:round;stroke-linejoin:round;stroke-miterlimit:10;" x1="15.43617" y1="81.1383" x2="90.67021" y2="81.1383"/>
	
		<line style="fill:none;stroke:#000000;stroke-width:3;stroke-linecap:round;stroke-linejoin:round;stroke-miterlimit:10;" x1="37.39362" y1="100.37234" x2="90.67021" y2="100.37234"/>
	
		<line style="fill:none;stroke:#000000;stroke-width:3;stroke-linecap:round;stroke-linejoin:round;stroke-miterlimit:10;" x1="15.43617" y1="119.60638" x2="90.67021" y2="119.60638"/>
	<circle cx="30.50227" cy="42.47083" r="1.78472"/>
	<circle cx="30.50227" cy="61.78997" r="1.78472"/>
	<circle cx="30.50227" cy="100.26734" r="1.78472"/>
</g>
<g id="Ebene_2">
	
		<line style="stroke:#000000;stroke-width:5;stroke-linecap:round;stroke-miterlimit:10;" x1="103.5671" y1="2.60366" x2="103.5671" y2="142.34724"/>
	<g>
		<g>
			
				<line style="fill:none;stroke:#000000;stroke-width:5;stroke-linecap:round;stroke-miterlimit:10;" x1="176.27103" y1="39.99681" x2="104.42179" y2="39.99681"/>
			<g>
				<path d="M175.97025,33.98119c3.3219,0,6.01569,2.69376,6.01569,6.01562s-2.69379,6.01562-6.01569,6.01562
					c-3.32184,0-6.01556-2.69376-6.01556-6.01562S172.64841,33.98119,175.97025,33.98119z"/>
			</g>
		</g>
	</g>
	<g>
		<g>
			
				<line style="fill:none;stroke:#000000;stroke-width:5;stroke-linecap:round;stroke-miterlimit:10;" x1="105.27653" y1="120.3387" x2="371.71945" y2="120.3387"/>
			<g>
				<path d="M371.41867,126.35432c3.3219,0,6.01569-2.69376,6.01569-6.01562s-2.69379-6.01562-6.01569-6.01562
					c-3.32184,0-6.01556,2.69376-6.01556,6.01562S368.09683,126.35432,371.41867,126.35432z"/>
			</g>
		</g>
	</g>
	<g>
		<g>
			<path style="fill:none;stroke:#000000;stroke-width:5;stroke-linecap:round;stroke-miterlimit:10;" d="M404.9924,34.89516
				l-56.33624,82.93719c-1.07922,1.58878-2.81903,2.50806-4.73975,2.50806h-4.82068"/>
			<g>
				<path d="M399.8472,31.76384c1.86658-2.74792,5.60852-3.46262,8.35638-1.5961c2.74786,1.86655,3.46259,5.60846,1.59601,8.35638
					c-1.86652,2.74783-5.6084,3.46252-8.35632,1.59598C398.6954,38.25359,397.98068,34.51168,399.8472,31.76384z"/>
			</g>
		</g>
	</g>
	<g>
		<g>
			
				<line style="fill:none;stroke:#000000;stroke-width:5;stroke-linecap:round;stroke-miterlimit:10;" x1="153.13974" y1="40.85152" x2="153.13974" y2="96.46141"/>
			<g>
				<path d="M147.12411,96.16063c0,3.3219,2.69379,6.01569,6.01562,6.01569c3.3219,0,6.01562-2.69379,6.01562-6.01569
					c0-3.32184-2.69373-6.01556-6.01562-6.01556C149.8179,90.14507,147.12411,92.83879,147.12411,96.16063z"/>
			</g>
		</g>
	</g>
	<g>
		<g>
			<path style="fill:none;stroke:#000000;stroke-width:3;stroke-linecap:round;stroke-miterlimit:10;" d="M128.99448,120.12502
				v8.7825c0,2.58417,2.09485,4.67905,4.67902,4.67905h89.32794"/>
			<g>
				<circle cx="222.82095" cy="133.58656" r="3.60938"/>
			</g>
		</g>
	</g>
	
		<line style="fill:none;stroke:#000000;stroke-width:3;stroke-linecap:round;stroke-miterlimit:10;" x1="206.34488" y1="120.55238" x2="206.34488" y2="133.15921"/>
	<g>
		<g>
			<path style="fill:none;stroke:#000000;stroke-width:3;stroke-linecap:round;stroke-miterlimit:10;" d="M103.35343,17.06527
				h33.13494c2.11572,0,3.83087-1.71515,3.83087-3.83087V8.10103"/>
			<g>
				<path d="M143.92862,8.28151c0-1.99316-1.61627-3.60941-3.60938-3.60941s-3.60938,1.61624-3.60938,3.60941
					c0,1.99307,1.61627,3.60934,3.60938,3.60934S143.92862,10.27458,143.92862,8.28151z"/>
			</g>
		</g>
	</g>
	<g>
		<g>
			<path style="fill:none;stroke:#000000;stroke-width:3;stroke-linecap:round;stroke-miterlimit:10;" d="M102.71238,86.57802
				h9.10413c1.85907,0,3.36609,1.50705,3.36609,3.36612v45.76904"/>
			<g>
				<path d="M111.57322,135.5327c0,1.99316,1.61627,3.60941,3.60938,3.60941c1.99316,0,3.60938-1.61624,3.60938-3.60941
					c0-1.9931-1.61621-3.60934-3.60938-3.60934C113.18949,131.92336,111.57322,133.5396,111.57322,135.5327z"/>
			</g>
		</g>
	</g>
	<g>
		<g>
			
				<line style="fill:none;stroke:#000000;stroke-width:3;stroke-linecap:round;stroke-miterlimit:10;" x1="103.4362" y1="26.92553" x2="264.68808" y2="26.92553"/>
			<g>
				<path d="M264.5076,30.5349c1.99316,0,3.60944-1.61624,3.60944-3.60938c0-1.9931-1.61627-3.60938-3.60944-3.60938
					c-1.9931,0-3.60931,1.61627-3.60931,3.60938C260.89828,28.91866,262.5145,30.5349,264.5076,30.5349z"/>
			</g>
		</g>
	</g>
</g>
</svg>
